<svg width="146" height="35" viewBox="0 0 146 35" fill="none" xmlns="http://www.w3.org/2000/svg">
<path d="M10.088 27.36C8.192 27.36 6.488 26.928 4.976 26.064C3.488 25.2 2.312 24.024 1.448 22.536C0.584 21.024 0.152 19.308 0.152 17.388C0.152 15.468 0.584 13.764 1.448 12.276C2.312 10.764 3.488 9.576 4.976 8.712C6.488 7.848 8.192 7.416 10.088 7.416C11.816 7.416 13.4 7.692 14.84 8.244C16.304 8.796 17.468 9.588 18.332 10.62L14.696 14.94C14.432 14.604 14.096 14.304 13.688 14.04C13.28 13.752 12.824 13.536 12.32 13.392C11.84 13.224 11.3 13.14 10.7 13.14C9.908 13.14 9.212 13.32 8.612 13.68C8.012 14.04 7.544 14.544 7.208 15.192C6.896 15.816 6.74 16.536 6.74 17.352C6.74 18.168 6.896 18.888 7.208 19.512C7.52 20.136 7.976 20.64 8.576 21.024C9.2 21.408 9.908 21.6 10.7 21.6C11.3 21.6 11.84 21.528 12.32 21.384C12.824 21.24 13.268 21.036 13.652 20.772C14.06 20.508 14.408 20.196 14.696 19.836L18.332 24.192C17.444 25.2 16.268 25.98 14.804 26.532C13.364 27.084 11.792 27.36 10.088 27.36ZM21.313 27V0.36H27.865V11.7L26.497 12.132C26.737 11.22 27.205 10.416 27.901 9.72C28.597 9 29.425 8.436 30.385 8.028C31.345 7.62 32.353 7.416 33.409 7.416C34.849 7.416 36.061 7.716 37.045 8.316C38.053 8.892 38.809 9.768 39.313 10.944C39.841 12.096 40.105 13.512 40.105 15.192V27H33.409V15.732C33.409 15.108 33.313 14.592 33.121 14.184C32.929 13.752 32.641 13.428 32.257 13.212C31.873 12.996 31.417 12.9 30.889 12.924C30.481 12.924 30.097 12.984 29.737 13.104C29.401 13.224 29.101 13.416 28.837 13.68C28.573 13.92 28.369 14.196 28.225 14.508C28.105 14.82 28.045 15.168 28.045 15.552V27H24.697C23.881 27 23.185 27 22.609 27C22.057 27 21.625 27 21.313 27ZM51.7805 27.324C50.1965 27.324 48.7685 26.904 47.4965 26.064C46.2485 25.2 45.2525 24.024 44.5085 22.536C43.7885 21.024 43.4285 19.308 43.4285 17.388C43.4285 15.42 43.7885 13.692 44.5085 12.204C45.2285 10.716 46.2245 9.552 47.4965 8.712C48.7685 7.848 50.2325 7.416 51.8885 7.416C52.7765 7.416 53.5925 7.536 54.3365 7.776C55.0805 8.016 55.7285 8.364 56.2805 8.82C56.8325 9.276 57.3125 9.792 57.7205 10.368C58.1285 10.944 58.4645 11.568 58.7285 12.24L57.3605 12.168V7.812H63.9485V27H57.2165V22.32L58.6925 22.392C58.4765 23.088 58.1525 23.736 57.7205 24.336C57.3125 24.936 56.8085 25.464 56.2085 25.92C55.6085 26.352 54.9365 26.7 54.1925 26.964C53.4725 27.204 52.6685 27.324 51.7805 27.324ZM53.6885 21.816C54.4565 21.816 55.1165 21.648 55.6685 21.312C56.2205 20.952 56.6405 20.436 56.9285 19.764C57.2405 19.092 57.3965 18.3 57.3965 17.388C57.3965 16.452 57.2405 15.648 56.9285 14.976C56.6405 14.304 56.2205 13.8 55.6685 13.464C55.1165 13.104 54.4565 12.924 53.6885 12.924C52.9205 12.924 52.2605 13.104 51.7085 13.464C51.1805 13.8 50.7725 14.304 50.4845 14.976C50.1965 15.648 50.0525 16.452 50.0525 17.388C50.0525 18.3 50.1965 19.092 50.4845 19.764C50.7725 20.436 51.1805 20.952 51.7085 21.312C52.2605 21.648 52.9205 21.816 53.6885 21.816ZM70.2448 27V2.952H76.9408V27H70.2448ZM67.0768 13.5V7.812H80.2888V13.5H67.0768ZM91.1347 27.36C89.4307 27.36 87.9067 26.94 86.5627 26.1C85.2187 25.26 84.1507 24.108 83.3587 22.644C82.5907 21.18 82.2067 19.512 82.2067 17.64C82.2067 15.744 82.6027 14.064 83.3947 12.6C84.2107 11.136 85.2907 9.984 86.6347 9.144C87.9787 8.304 89.4787 7.884 91.1347 7.884C92.0947 7.884 93.0067 8.028 93.8707 8.316C94.7347 8.604 95.5147 9.012 96.2107 9.54C96.9067 10.044 97.5067 10.644 98.0107 11.34C98.5147 12.036 98.8747 12.792 99.0907 13.608L98.3707 13.14L98.5507 8.28H100.279V27H98.4787V22.32L99.0907 21.636C98.8747 22.428 98.5147 23.172 98.0107 23.868C97.5067 24.564 96.9067 25.176 96.2107 25.704C95.5147 26.232 94.7347 26.64 93.8707 26.928C93.0067 27.216 92.0947 27.36 91.1347 27.36ZM91.3867 25.56C92.7547 25.56 93.9787 25.224 95.0587 24.552C96.1627 23.856 97.0267 22.92 97.6507 21.744C98.2987 20.544 98.6227 19.164 98.6227 17.604C98.6227 16.068 98.3107 14.712 97.6867 13.536C97.0627 12.336 96.1987 11.4 95.0947 10.728C94.0147 10.032 92.7787 9.684 91.3867 9.684C89.9707 9.684 88.7107 10.032 87.6067 10.728C86.5267 11.4 85.6747 12.336 85.0507 13.536C84.4267 14.712 84.1147 16.068 84.1147 17.604C84.1147 19.116 84.4147 20.472 85.0147 21.672C85.6387 22.872 86.4907 23.82 87.5707 24.516C88.6747 25.212 89.9467 25.56 91.3867 25.56ZM105.55 34.92V8.28H107.278L107.458 13.14L106.99 13.572C107.302 12.492 107.83 11.532 108.574 10.692C109.342 9.828 110.266 9.144 111.346 8.64C112.426 8.136 113.602 7.884 114.874 7.884C116.53 7.884 118.03 8.304 119.374 9.144C120.742 9.984 121.822 11.136 122.614 12.6C123.43 14.064 123.838 15.744 123.838 17.64C123.838 19.512 123.442 21.18 122.65 22.644C121.882 24.108 120.814 25.26 119.446 26.1C118.102 26.94 116.578 27.36 114.874 27.36C113.602 27.36 112.426 27.108 111.346 26.604C110.266 26.1 109.342 25.428 108.574 24.588C107.83 23.724 107.302 22.752 106.99 21.672L107.35 22.14V34.92H105.55ZM114.586 25.56C116.026 25.56 117.298 25.224 118.402 24.552C119.506 23.856 120.37 22.908 120.994 21.708C121.618 20.508 121.93 19.152 121.93 17.64C121.93 16.104 121.606 14.736 120.958 13.536C120.334 12.336 119.47 11.4 118.366 10.728C117.262 10.032 116.002 9.684 114.586 9.684C113.17 9.684 111.898 10.032 110.77 10.728C109.666 11.4 108.79 12.336 108.142 13.536C107.518 14.712 107.206 16.068 107.206 17.604C107.206 19.164 107.53 20.544 108.178 21.744C108.826 22.92 109.702 23.856 110.806 24.552C111.91 25.224 113.17 25.56 114.586 25.56ZM127.628 34.92V8.28H129.356L129.536 13.14L129.068 13.572C129.38 12.492 129.908 11.532 130.652 10.692C131.42 9.828 132.344 9.144 133.424 8.64C134.504 8.136 135.68 7.884 136.952 7.884C138.608 7.884 140.108 8.304 141.452 9.144C142.82 9.984 143.9 11.136 144.692 12.6C145.508 14.064 145.916 15.744 145.916 17.64C145.916 19.512 145.52 21.18 144.728 22.644C143.96 24.108 142.892 25.26 141.524 26.1C140.18 26.94 138.656 27.36 136.952 27.36C135.68 27.36 134.504 27.108 133.424 26.604C132.344 26.1 131.42 25.428 130.652 24.588C129.908 23.724 129.38 22.752 129.068 21.672L129.428 22.14V34.92H127.628ZM136.664 25.56C138.104 25.56 139.376 25.224 140.48 24.552C141.584 23.856 142.448 22.908 143.072 21.708C143.696 20.508 144.008 19.152 144.008 17.64C144.008 16.104 143.684 14.736 143.036 13.536C142.412 12.336 141.548 11.4 140.444 10.728C139.34 10.032 138.08 9.684 136.664 9.684C135.248 9.684 133.976 10.032 132.848 10.728C131.744 11.4 130.868 12.336 130.22 13.536C129.596 14.712 129.284 16.068 129.284 17.604C129.284 19.164 129.608 20.544 130.256 21.744C130.904 22.92 131.78 23.856 132.884 24.552C133.988 25.224 135.248 25.56 136.664 25.56Z" fill="#14504D"/>
</svg>
