<svg width="160" height="105" viewBox="0 0 160 105" fill="none" xmlns="http://www.w3.org/2000/svg">
<g clip-path="url(#clip0_8431_2)">
<path d="M11.088 67.36C9.192 67.36 7.488 66.928 5.976 66.064C4.488 65.2 3.312 64.024 2.448 62.536C1.584 61.024 1.152 59.308 1.152 57.388C1.152 55.468 1.584 53.764 2.448 52.276C3.312 50.764 4.488 49.576 5.976 48.712C7.488 47.848 9.192 47.416 11.088 47.416C12.816 47.416 14.4 47.692 15.84 48.244C17.304 48.796 18.468 49.588 19.332 50.62L15.696 54.94C15.432 54.604 15.096 54.304 14.688 54.04C14.28 53.752 13.824 53.536 13.32 53.392C12.84 53.224 12.3 53.14 11.7 53.14C10.908 53.14 10.212 53.32 9.612 53.68C9.012 54.04 8.544 54.544 8.208 55.192C7.896 55.816 7.74 56.536 7.74 57.352C7.74 58.168 7.896 58.888 8.208 59.512C8.52 60.136 8.976 60.64 9.576 61.024C10.2 61.408 10.908 61.6 11.7 61.6C12.3 61.6 12.84 61.528 13.32 61.384C13.824 61.24 14.268 61.036 14.652 60.772C15.06 60.508 15.408 60.196 15.696 59.836L19.332 64.192C18.444 65.2 17.268 65.98 15.804 66.532C14.364 67.084 12.792 67.36 11.088 67.36ZM22.313 67V40.36H28.865V51.7L27.497 52.132C27.737 51.22 28.205 50.416 28.901 49.72C29.597 49 30.425 48.436 31.385 48.028C32.345 47.62 33.353 47.416 34.409 47.416C35.849 47.416 37.061 47.716 38.045 48.316C39.053 48.892 39.809 49.768 40.313 50.944C40.841 52.096 41.105 53.512 41.105 55.192V67H34.409V55.732C34.409 55.108 34.313 54.592 34.121 54.184C33.929 53.752 33.641 53.428 33.257 53.212C32.873 52.996 32.417 52.9 31.889 52.924C31.481 52.924 31.097 52.984 30.737 53.104C30.401 53.224 30.101 53.416 29.837 53.68C29.573 53.92 29.369 54.196 29.225 54.508C29.105 54.82 29.045 55.168 29.045 55.552V67H25.697C24.881 67 24.185 67 23.609 67C23.057 67 22.625 67 22.313 67ZM52.7805 67.324C51.1965 67.324 49.7685 66.904 48.4965 66.064C47.2485 65.2 46.2525 64.024 45.5085 62.536C44.7885 61.024 44.4285 59.308 44.4285 57.388C44.4285 55.42 44.7885 53.692 45.5085 52.204C46.2285 50.716 47.2245 49.552 48.4965 48.712C49.7685 47.848 51.2325 47.416 52.8885 47.416C53.7765 47.416 54.5925 47.536 55.3365 47.776C56.0805 48.016 56.7285 48.364 57.2805 48.82C57.8325 49.276 58.3125 49.792 58.7205 50.368C59.1285 50.944 59.4645 51.568 59.7285 52.24L58.3605 52.168V47.812H64.9485V67H58.2165V62.32L59.6925 62.392C59.4765 63.088 59.1525 63.736 58.7205 64.336C58.3125 64.936 57.8085 65.464 57.2085 65.92C56.6085 66.352 55.9365 66.7 55.1925 66.964C54.4725 67.204 53.6685 67.324 52.7805 67.324ZM54.6885 61.816C55.4565 61.816 56.1165 61.648 56.6685 61.312C57.2205 60.952 57.6405 60.436 57.9285 59.764C58.2405 59.092 58.3965 58.3 58.3965 57.388C58.3965 56.452 58.2405 55.648 57.9285 54.976C57.6405 54.304 57.2205 53.8 56.6685 53.464C56.1165 53.104 55.4565 52.924 54.6885 52.924C53.9205 52.924 53.2605 53.104 52.7085 53.464C52.1805 53.8 51.7725 54.304 51.4845 54.976C51.1965 55.648 51.0525 56.452 51.0525 57.388C51.0525 58.3 51.1965 59.092 51.4845 59.764C51.7725 60.436 52.1805 60.952 52.7085 61.312C53.2605 61.648 53.9205 61.816 54.6885 61.816ZM71.2448 67V42.952H77.9408V67H71.2448ZM68.0768 53.5V47.812H81.2888V53.5H68.0768ZM92.1347 67.36C90.4307 67.36 88.9067 66.94 87.5627 66.1C86.2187 65.26 85.1507 64.108 84.3587 62.644C83.5907 61.18 83.2067 59.512 83.2067 57.64C83.2067 55.744 83.6027 54.064 84.3947 52.6C85.2107 51.136 86.2907 49.984 87.6347 49.144C88.9787 48.304 90.4787 47.884 92.1347 47.884C93.0947 47.884 94.0067 48.028 94.8707 48.316C95.7347 48.604 96.5147 49.012 97.2107 49.54C97.9067 50.044 98.5067 50.644 99.0107 51.34C99.5147 52.036 99.8747 52.792 100.091 53.608L99.3707 53.14L99.5507 48.28H101.279V67H99.4787V62.32L100.091 61.636C99.8747 62.428 99.5147 63.172 99.0107 63.868C98.5067 64.564 97.9067 65.176 97.2107 65.704C96.5147 66.232 95.7347 66.64 94.8707 66.928C94.0067 67.216 93.0947 67.36 92.1347 67.36ZM92.3867 65.56C93.7547 65.56 94.9787 65.224 96.0587 64.552C97.1627 63.856 98.0267 62.92 98.6507 61.744C99.2987 60.544 99.6227 59.164 99.6227 57.604C99.6227 56.068 99.3107 54.712 98.6867 53.536C98.0627 52.336 97.1987 51.4 96.0947 50.728C95.0147 50.032 93.7787 49.684 92.3867 49.684C90.9707 49.684 89.7107 50.032 88.6067 50.728C87.5267 51.4 86.6747 52.336 86.0507 53.536C85.4267 54.712 85.1147 56.068 85.1147 57.604C85.1147 59.116 85.4147 60.472 86.0147 61.672C86.6387 62.872 87.4907 63.82 88.5707 64.516C89.6747 65.212 90.9467 65.56 92.3867 65.56ZM106.55 74.92V48.28H108.278L108.458 53.14L107.99 53.572C108.302 52.492 108.83 51.532 109.574 50.692C110.342 49.828 111.266 49.144 112.346 48.64C113.426 48.136 114.602 47.884 115.874 47.884C117.53 47.884 119.03 48.304 120.374 49.144C121.742 49.984 122.822 51.136 123.614 52.6C124.43 54.064 124.838 55.744 124.838 57.64C124.838 59.512 124.442 61.18 123.65 62.644C122.882 64.108 121.814 65.26 120.446 66.1C119.102 66.94 117.578 67.36 115.874 67.36C114.602 67.36 113.426 67.108 112.346 66.604C111.266 66.1 110.342 65.428 109.574 64.588C108.83 63.724 108.302 62.752 107.99 61.672L108.35 62.14V74.92H106.55ZM115.586 65.56C117.026 65.56 118.298 65.224 119.402 64.552C120.506 63.856 121.37 62.908 121.994 61.708C122.618 60.508 122.93 59.152 122.93 57.64C122.93 56.104 122.606 54.736 121.958 53.536C121.334 52.336 120.47 51.4 119.366 50.728C118.262 50.032 117.002 49.684 115.586 49.684C114.17 49.684 112.898 50.032 111.77 50.728C110.666 51.4 109.79 52.336 109.142 53.536C108.518 54.712 108.206 56.068 108.206 57.604C108.206 59.164 108.53 60.544 109.178 61.744C109.826 62.92 110.702 63.856 111.806 64.552C112.91 65.224 114.17 65.56 115.586 65.56ZM128.628 74.92V48.28H130.356L130.536 53.14L130.068 53.572C130.38 52.492 130.908 51.532 131.652 50.692C132.42 49.828 133.344 49.144 134.424 48.64C135.504 48.136 136.68 47.884 137.952 47.884C139.608 47.884 141.108 48.304 142.452 49.144C143.82 49.984 144.9 51.136 145.692 52.6C146.508 54.064 146.916 55.744 146.916 57.64C146.916 59.512 146.52 61.18 145.728 62.644C144.96 64.108 143.892 65.26 142.524 66.1C141.18 66.94 139.656 67.36 137.952 67.36C136.68 67.36 135.504 67.108 134.424 66.604C133.344 66.1 132.42 65.428 131.652 64.588C130.908 63.724 130.38 62.752 130.068 61.672L130.428 62.14V74.92H128.628ZM137.664 65.56C139.104 65.56 140.376 65.224 141.48 64.552C142.584 63.856 143.448 62.908 144.072 61.708C144.696 60.508 145.008 59.152 145.008 57.64C145.008 56.104 144.684 54.736 144.036 53.536C143.412 52.336 142.548 51.4 141.444 50.728C140.34 50.032 139.08 49.684 137.664 49.684C136.248 49.684 134.976 50.032 133.848 50.728C132.744 51.4 131.868 52.336 131.22 53.536C130.596 54.712 130.284 56.068 130.284 57.604C130.284 59.164 130.608 60.544 131.256 61.744C131.904 62.92 132.78 63.856 133.884 64.552C134.988 65.224 136.248 65.56 137.664 65.56Z" fill="#14504D"/>
</g>
<defs>
<clipPath id="clip0_8431_2">
<rect width="160" height="105" fill="white"/>
</clipPath>
</defs>
</svg>
